<?xml version="1.0" standalone="no"?>
<!DOCTYPE svg PUBLIC "-//W3C//DTD SVG 20010904//EN"
 "http://www.w3.org/TR/2001/REC-SVG-20010904/DTD/svg10.dtd">
<svg version="1.0" xmlns="http://www.w3.org/2000/svg"
 width="300.000000pt" height="300.000000pt" viewBox="0 0 300.000000 300.000000"
 preserveAspectRatio="xMidYMid meet">
<metadata>
Created by potrace 1.11, written by Peter Selinger 2001-2013
</metadata>
<g transform="translate(0.000000,300.000000) scale(0.100000,-0.100000)"
fill="#000000" stroke="none">
<path d="M1349 2720 c0 -30 -1 -97 -2 -149 l-2 -93 -83 -24 c-74 -22 -157 -60
-217 -100 -11 -8 -46 -40 -78 -71 -105 -104 -155 -241 -144 -398 7 -99 36
-178 89 -248 96 -123 199 -187 457 -284 217 -82 291 -125 327 -194 20 -39 20
-118 0 -157 -64 -123 -302 -153 -576 -72 -56 17 -129 44 -161 60 l-58 30 -15
-52 c-38 -139 -45 -165 -50 -188 -3 -14 -12 -48 -19 -77 -13 -46 -13 -52 2
-56 9 -3 50 -20 91 -37 41 -17 109 -40 150 -50 72 -19 105 -24 213 -35 27 -3
53 -7 56 -9 4 -3 6 -68 6 -145 -1 -89 3 -142 10 -144 5 -2 75 -3 154 -3 l144
1 1 160 1 159 68 18 c290 76 470 278 480 539 4 96 -7 164 -40 247 -21 53 -43
83 -103 143 -89 90 -154 128 -374 219 -194 80 -237 102 -298 149 -58 45 -78
78 -78 128 0 71 54 129 145 155 55 15 216 12 301 -6 82 -17 182 -50 235 -77
l37 -18 32 127 c18 70 38 150 45 179 l13 52 -52 20 c-110 42 -206 65 -326 77
-36 4 -67 8 -70 11 -3 3 -6 62 -6 131 -1 70 -2 129 -3 132 0 3 -68 5 -151 5
l-150 0 -1 -55z"/>
</g>
</svg>
