<svg xmlns="http://www.w3.org/2000/svg" xmlns:xlink="http://www.w3.org/1999/xlink" viewBox="0 0 213.4 219.88"><defs><style>.cls-1,.cls-29{fill:#005077;}.cls-1{opacity:0.1;}.cls-2{fill:url(#Degradado_sin_nombre_11);}.cls-3{fill:url(#Degradado_sin_nombre_11-2);}.cls-4{fill:url(#Degradado_sin_nombre_11-3);}.cls-5{fill:url(#Degradado_sin_nombre_11-4);}.cls-6{fill:url(#Degradado_sin_nombre_11-5);}.cls-7{fill:url(#Degradado_sin_nombre_11-6);}.cls-8{fill:url(#Degradado_sin_nombre_10);}.cls-9{fill:#002856;}.cls-10{fill:#9e9d98;}.cls-11,.cls-33{fill:#cccbc4;}.cls-12{fill:#d6d5ca;}.cls-13{fill:url(#Degradado_sin_nombre_10-2);}.cls-14{fill:url(#Degradado_sin_nombre_14);}.cls-15{fill:url(#Degradado_sin_nombre_11-7);}.cls-16{fill:url(#Degradado_sin_nombre_14-2);}.cls-17{fill:url(#Degradado_sin_nombre_11-8);}.cls-18{fill:url(#Degradado_sin_nombre_11-9);}.cls-19{fill:url(#Degradado_sin_nombre_11-10);}.cls-20{fill:url(#Degradado_sin_nombre_11-11);}.cls-21{fill:url(#Degradado_sin_nombre_11-12);}.cls-22{fill:url(#Degradado_sin_nombre_11-13);}.cls-23{fill:#eeebd4;}.cls-24{fill:#c5c4bb;}.cls-25{fill:#c0afae;}.cls-26{fill:#fff;}.cls-27{fill:#00acc1;}.cls-28{fill:#00838f;}.cls-30{fill:#d3c0be;}.cls-31{fill:#008da7;}.cls-32{fill:#62afbd;}.cls-33{opacity:0.5;}</style><linearGradient id="Degradado_sin_nombre_11" x1="158.31" y1="98.6" x2="166.54" y2="98.6" gradientUnits="userSpaceOnUse"><stop offset="0" stop-color="#fae8dc"/><stop offset="1" stop-color="#fab9ab" stop-opacity="0.97"/></linearGradient><linearGradient id="Degradado_sin_nombre_11-2" x1="164.92" y1="98.52" x2="170.92" y2="98.52" xlink:href="#Degradado_sin_nombre_11"/><linearGradient id="Degradado_sin_nombre_11-3" x1="164.12" y1="100.52" x2="171.06" y2="100.52" xlink:href="#Degradado_sin_nombre_11"/><linearGradient id="Degradado_sin_nombre_11-4" x1="162.43" y1="101.87" x2="169.37" y2="101.87" xlink:href="#Degradado_sin_nombre_11"/><linearGradient id="Degradado_sin_nombre_11-5" x1="160.23" y1="102.8" x2="166.49" y2="102.8" xlink:href="#Degradado_sin_nombre_11"/><linearGradient id="Degradado_sin_nombre_11-6" x1="138.05" y1="75.36" x2="131.46" y2="92.52" xlink:href="#Degradado_sin_nombre_11"/><linearGradient id="Degradado_sin_nombre_10" x1="140.41" y1="222.44" x2="124.44" y2="133.83" gradientUnits="userSpaceOnUse"><stop offset="0" stop-color="#008da7"/><stop offset="1" stop-color="#002856"/></linearGradient><linearGradient id="Degradado_sin_nombre_10-2" x1="112.44" y1="97.02" x2="161.94" y2="253.09" xlink:href="#Degradado_sin_nombre_10"/><linearGradient id="Degradado_sin_nombre_14" x1="88.84" y1="85.71" x2="129.18" y2="85.71" gradientUnits="userSpaceOnUse"><stop offset="0" stop-color="#ff7a58"/><stop offset="1" stop-color="#d81b60"/></linearGradient><linearGradient id="Degradado_sin_nombre_11-7" x1="112.11" y1="46.62" x2="131.87" y2="46.62" xlink:href="#Degradado_sin_nombre_11"/><linearGradient id="Degradado_sin_nombre_14-2" x1="108.53" y1="57.69" x2="119.72" y2="57.69" xlink:href="#Degradado_sin_nombre_14"/><linearGradient id="Degradado_sin_nombre_11-8" x1="148.57" y1="103.2" x2="156.79" y2="103.2" xlink:href="#Degradado_sin_nombre_11"/><linearGradient id="Degradado_sin_nombre_11-9" x1="155.15" y1="103.99" x2="160.78" y2="103.99" xlink:href="#Degradado_sin_nombre_11"/><linearGradient id="Degradado_sin_nombre_11-10" x1="154.1" y1="105.92" x2="160.62" y2="105.92" xlink:href="#Degradado_sin_nombre_11"/><linearGradient id="Degradado_sin_nombre_11-11" x1="152.25" y1="107.03" x2="158.76" y2="107.03" xlink:href="#Degradado_sin_nombre_11"/><linearGradient id="Degradado_sin_nombre_11-12" x1="150.03" y1="107.58" x2="155.7" y2="107.58" xlink:href="#Degradado_sin_nombre_11"/><linearGradient id="Degradado_sin_nombre_11-13" x1="106.33" y1="82.9" x2="150.62" y2="82.9" xlink:href="#Degradado_sin_nombre_11"/></defs><title>Ativo 1</title><g id="Camada_2" data-name="Camada 2"><g id="OBJECTS"><path class="cls-1" d="M198.75,207.65c-23.45-.26-34.79-2.58-58.21-2.06-1.3-1-8.16.12-10.56.33-15.4,1.38-25.17,4.72-40.55,6.33-2.13.22-2.13,2.53,0,2.75,11.51,1.21,23.18,1,34.78,1.43.14,1.84,2.07,3.49,5.92,3.44,27.35-.33,54.51-1.23,81.77-2.64C217.8,216.92,204.81,207.72,198.75,207.65Z"/><polygon class="cls-2" points="159.94 94.44 166.54 97.12 163.36 102.76 159.6 100.84 158.31 97.59 159.94 94.44"/><path class="cls-3" d="M165.4,97.89a7,7,0,0,1,4.6,2.24c.52.54,1.26-.35.75-.89a7.94,7.94,0,0,0-5.17-2.49c-.74-.07-.93,1.08-.18,1.14Z"/><path class="cls-4" d="M164.59,99.66a8.44,8.44,0,0,1,5.55,2.69c.52.54,1.25-.35.75-.89a9.46,9.46,0,0,0-6.11-2.95c-.74-.06-.94,1.08-.19,1.15Z"/><path class="cls-5" d="M162.91,101a8.46,8.46,0,0,1,5.55,2.69c.51.55,1.25-.35.74-.88a9.37,9.37,0,0,0-6.11-2.95c-.74-.07-.93,1.08-.18,1.14Z"/><path class="cls-6" d="M160.68,101.41a8.27,8.27,0,0,1,4.77,3.69c.39.64,1.34,0,1-.67a9.54,9.54,0,0,0-5.53-4.17c-.72-.21-.9.94-.19,1.15Z"/><path class="cls-7" d="M159.94,94.43l-27.35-.2-9.78-25.41c-1.34-3.64-5.23-6.45-8.61-4.53h0c-2.92,1.67-3,5.71-1.44,8.71l13.86,30.25c.52,1.26,31.89-5.14,31.89-5.14Z"/><path class="cls-8" d="M125.06,119.84c1.52.58,17.74,38.55,17.74,38.55l8.09,42.79-4.24-1.13-10.33-27.8V160.1L109.08,128Z"/><polygon class="cls-9" points="138.77 207.65 140.4 207.81 146.41 115.24 144.78 115.08 138.77 207.65"/><polygon class="cls-9" points="198.75 207.65 197.13 207.81 191.12 115.24 192.75 115.08 198.75 207.65"/><rect class="cls-10" x="132.25" y="111.98" width="73.04" height="2.24" transform="translate(337.53 226.19) rotate(180)"/><rect class="cls-9" x="138.94" y="114.21" width="59.65" height="2.24" transform="translate(337.53 230.66) rotate(180)"/><polygon class="cls-9" points="131.9 214.93 133.9 215.1 141.29 115.25 139.28 115.08 131.9 214.93"/><polygon class="cls-9" points="205.63 214.93 203.63 215.1 196.24 115.25 198.24 115.08 205.63 214.93"/><path class="cls-9" d="M91.51,209.13v1.59c0,2.27,8.07,4.1,18,4.1s18-1.83,18-4.1v-1.59c0-2.26-8.07-4.1-18-4.1S91.51,206.87,91.51,209.13Z"/><path class="cls-11" d="M91.51,209.13c0-2.26,8.07-4.1,18-4.1,1.79,0,3.52.06,5.16.17l-8,8C98.1,212.87,91.51,211.18,91.51,209.13Z"/><path class="cls-10" d="M127.55,209.13c0,2.26-8.07,4.1-18,4.1-1,0-1.9,0-2.81,0l8-8C122.13,205.71,127.55,207.28,127.55,209.13Z"/><rect class="cls-9" x="108.84" y="128" width="1.86" height="79.88" transform="translate(219.53 335.87) rotate(180)"/><path class="cls-9" d="M93.54,181.86c0-3.62,8.12-5.51,16.15-5.51s16.14,1.89,16.14,5.51-8.12,5.5-16.14,5.5S93.54,185.47,93.54,181.86Zm1.71,0c0,1.54,5.62,3.8,14.44,3.8s14.44-2.26,14.44-3.8-5.63-3.81-14.44-3.81S95.25,180.31,95.25,181.86Z"/><path class="cls-10" d="M127.55,127.3V133c0,2.26-8.07,4.1-18,4.1s-18-1.84-18-4.1V127.3Z"/><path class="cls-12" d="M91.51,127.3c0,2.26,8.07,4.1,18,4.1s18-1.84,18-4.1-8.07-4.09-18-4.09S91.51,125,91.51,127.3Z"/><path class="cls-9" d="M110.56,67.08a18.22,18.22,0,0,0,8.75,5.73,8.25,8.25,0,0,0,3.78.36,4.06,4.06,0,0,0,3-2.11,2.73,2.73,0,0,0-.82-3.4,4.7,4.7,0,0,0,3-8,8.36,8.36,0,0,0,7.34-2.71,13.8,13.8,0,0,0,3.3-7.32,21,21,0,0,0-4.44-16.39c2-.73,1.37-6.61-3.48-9.42-3.61-2.09-8-2.62-12.17-2.44a17.05,17.05,0,0,0-11.33,4.59c-4.35,4.32-5.38,11.16-4,17.15.43,1.91,1,4.19-.35,5.63a7.82,7.82,0,0,1-2.48,1.43,2.94,2.94,0,0,0-1.87,2C98.56,54,101,55.14,101,57c0,1.33-1.27,2.24-2.33,3s-2.14,2.11-1.57,3.31c.45,1,1.64,1.2,2.64,1.51s2.12,1.12,1.88,2.14-1.34,1.28-1.65,2.14.69,2.07,1.76,2.15a5.33,5.33,0,0,0,3-1C106.51,69.13,108.79,68.14,110.56,67.08Z"/><path class="cls-13" d="M103.42,112.54c-4.28.29-8.72-3.53-11.7-2.8-1.74.44-2.64,3.7-2.59,5,.13,3.41.41,7.94,2.38,10.58,5.48,7.34,50.2,12.92,50.2,12.92l-9.44,11.09L122,179.05l3.1,2.81,29-49.29S115,111.75,103.42,112.54Z"/><polygon class="cls-9" points="126.74 188.48 124.67 182.75 121.12 179.47 116.45 181.95 128.7 195.13 129.12 193.26 126.74 188.48"/><path class="cls-14" d="M123.23,63c-1.73-2.65-2.45-7.5-5.87-7.91-8.17-1-12.7,7-13.51,13.77-.53,4.44-.85,8.89-1.26,13.34-.24,2.68,0,6.56-1.39,9-2.37,4.28-8.14,13.86-11.43,19.34-1.11,1.85-1.57,3.89.59,4l28.94,1.91s.72-11.76,0-18.29c-.51-4.61,1.41-7.47,2.75-11.82.62-2,.81-3.06,2.3-4.72s4.14-3.5,4.66-5.74C130.11,71.18,125.78,66.87,123.23,63Z"/><path class="cls-15" d="M130.65,44.83a3.77,3.77,0,0,1-.89-3.68c.27-1.3.87-2.52,1.05-3.83a3.37,3.37,0,0,0-1.34-3.49s-8-1.48-9.81,4.08a11.1,11.1,0,0,1-2.72,4.27c.06-3.16-2.69-2.35-3.36-1.66a2.32,2.32,0,0,0-.34,2.66,2.51,2.51,0,0,0,2.34,1.37l-3.47,12c1.86,1.1,3.81,2,5.72,3A4.35,4.35,0,0,0,118.7,58c.81-2.63,2.63-5,3.44-4.77,1.63.45,3.2,2,4.74,1.31,1.2-.54,1.48-2.09,1.56-3.41s.29-2.86,1.45-3.48c.76-.41,2-.53,2-1.39C131.88,45.59,131.15,45.24,130.65,44.83Z"/><path class="cls-16" d="M111.49,60.06a3.71,3.71,0,0,1-2.29-.76,2.54,2.54,0,0,1-.67-1.89,7.7,7.7,0,0,1,.44-2,13.73,13.73,0,0,1,3.85-.94,4.65,4.65,0,0,1,3.64,1.27,6.31,6.31,0,0,1,.82,1.17q1.23,2,2.44,4Z"/><polygon class="cls-17" points="150.62 98.84 156.79 102.41 152.86 107.56 149.41 105.14 148.57 101.74 150.62 98.84"/><path class="cls-18" d="M155.55,103a7,7,0,0,1,4.26,2.84c.43.61,1.29-.17.86-.77a8,8,0,0,0-4.78-3.18c-.72-.17-1.07.94-.34,1.11Z"/><path class="cls-19" d="M154.51,104.66a8.44,8.44,0,0,1,5.13,3.42c.43.61,1.29-.17.86-.77a9.45,9.45,0,0,0-5.65-3.76c-.72-.17-1.07.94-.34,1.11Z"/><path class="cls-20" d="M152.66,105.76a8.46,8.46,0,0,1,5.12,3.43c.44.61,1.29-.17.87-.77a9.45,9.45,0,0,0-5.65-3.76c-.73-.17-1.07.94-.34,1.1Z"/><path class="cls-21" d="M150.4,105.85a8.28,8.28,0,0,1,4.21,4.31c.3.69,1.33.15,1-.53a9.51,9.51,0,0,0-4.9-4.89c-.68-.31-1,.8-.34,1.11Z"/><path class="cls-22" d="M150.62,98.84l-27.06-4-6.19-26.51c-.83-3.8-4.3-7.11-7.91-5.67h0c-3.12,1.24-3.73,5.24-2.62,8.42L116.41,103c.34,1.31,32.29-.72,32.29-.72Z"/><path class="cls-23" d="M161,110.59h27.63l4.12-16.93a2.47,2.47,0,0,0-2.4-3.06H167.76a2.47,2.47,0,0,0-2.4,1.89Z"/><path class="cls-11" d="M193.46,91.61a2.48,2.48,0,0,1,.41,2l-4.12,16.93H174.48Z"/><path class="cls-24" d="M149.57,110.58H173.4L172,112H148.18A1.4,1.4,0,0,1,149.57,110.58Z"/><path class="cls-25" d="M189.75,110.58a1.4,1.4,0,0,1-1.39,1.4H172l1.39-1.4Z"/><path class="cls-23" d="M148.18,112h12.54a1.4,1.4,0,0,0,1.39-1.4H149.57A1.4,1.4,0,0,0,148.18,112Z"/><path class="cls-12" d="M162.11,110.59l4.41-18.1a2.47,2.47,0,0,1,2.4-1.89h22.55a2.48,2.48,0,0,1,2,1l-19,19Z"/><path class="cls-26" d="M180.88,101.41a1.65,1.65,0,0,1-1.56,1.55,1.34,1.34,0,0,1-1.29-1.55,1.65,1.65,0,0,1,1.55-1.54A1.35,1.35,0,0,1,180.88,101.41Z"/><path class="cls-27" d="M200.23,91.06v7.85a.35.35,0,0,0,.69,0V95a1.19,1.19,0,0,1,1.19-1.19h0a1.19,1.19,0,0,1,1.2,1.19v4a2.65,2.65,0,0,1-2.65,2.65h-.08a.35.35,0,0,0-.35.34v3.5a.34.34,0,0,1-.34.34h-.49V89.92A1.2,1.2,0,0,1,200.23,91.06Z"/><path class="cls-28" d="M196,93.79h0A1.19,1.19,0,0,1,197.16,95v5.72a.34.34,0,0,0,.68,0V91.06a1.2,1.2,0,0,1,1.2-1.2h0a1.43,1.43,0,0,1,.36.06v15.9h-1.21a.35.35,0,0,1-.35-.34v-1.71a.34.34,0,0,0-.34-.34h-.12a2.6,2.6,0,0,1-2.61-2.6V95A1.19,1.19,0,0,1,196,93.79Z"/><path class="cls-29" d="M193.58,108.49V104.2h10.35v.56l-7.2,7.2A3.49,3.49,0,0,1,193.58,108.49Z"/><path class="cls-9" d="M203.93,104.76v3.73a3.49,3.49,0,0,1-3.49,3.49h-3.37l-.34,0Z"/><path class="cls-30" d="M144.36,111a1,1,0,0,1,1,1h-5.2l1-1Z"/><path class="cls-12" d="M135.56,111h5.55l-1,1h-5.55A1,1,0,0,1,135.56,111Z"/><polygon class="cls-9" points="155.71 206.08 151.15 202.05 146.46 200.87 143.55 205.29 160.62 210.98 160.09 209.13 155.71 206.08"/><polygon class="cls-31" points="184.19 56.61 182.28 58.52 182.28 58.52 185.88 62.12 191.97 56.03 190.58 54.62 185.92 58.49 184.19 56.61"/><path class="cls-31" d="M188.59,63.68H177.43V51.06h1.32v.5a.49.49,0,0,0,.49.49h.12a.49.49,0,0,0,.49-.49v-.5h1.41v.5a.49.49,0,0,0,.49.49h.12a.49.49,0,0,0,.49-.49v-.5h1.42v.5a.48.48,0,0,0,.48.49h.12a.49.49,0,0,0,.49-.49v-.5h1.42v.5a.49.49,0,0,0,.48.49h.12a.49.49,0,0,0,.49-.49v-.5h.29l.92.91v2.72l1-.81V51.56l-1.49-1.47h-.69V49.6a.49.49,0,0,0-.49-.49h-.12a.49.49,0,0,0-.48.49v.49h-1.42V49.6a.49.49,0,0,0-.49-.49h-.12a.48.48,0,0,0-.48.49v.49h-1.42V49.6a.49.49,0,0,0-.49-.49h-.12a.49.49,0,0,0-.49.49v.49h-1.41V49.6a.49.49,0,0,0-.49-.49h-.12a.49.49,0,0,0-.49.49v.49h-2.29V64.65h13.1v-4.5l-1,1Z"/><path class="cls-31" d="M169.4,32.3H155.18v-.7l13.06-1.73a1.39,1.39,0,0,0,1.2-1.37V24.19a1.3,1.3,0,0,0-1.3-1.3h-13v-1a1.59,1.59,0,0,0-1.59-1.59h-2.53a1,1,0,0,0,0,2h2.1V32.73a1.59,1.59,0,0,0,1.59,1.59H169.4a1,1,0,0,0,0-2Zm-8.53-2.91-2.49.33V24.33h2.49ZM162,24.33h2.48v4.58l-2.48.32Zm6,4.11-2.34.31V24.33H168Zm-10.77-4.11v5.54l-2,.27V24.33Z"/><path class="cls-31" d="M157.75,34.51a2,2,0,1,0,2,2A2,2,0,0,0,157.75,34.51Z"/><path class="cls-31" d="M167.38,34.51a2,2,0,1,0,2,2A2,2,0,0,0,167.38,34.51Z"/><path class="cls-31" d="M191.28,23V20.35a11.49,11.49,0,0,1-4.8-1.22l.85-3.3A10,10,0,0,0,192,17.07c1.6,0,2.7-.62,2.7-1.75s-.9-1.75-3-2.45c-3-1-5.08-2.43-5.08-5.17,0-2.48,1.75-4.43,4.77-5V0h2.77V2.48a10.27,10.27,0,0,1,4.09.93l-.82,3.19a9.33,9.33,0,0,0-4.06-1c-1.84,0-2.43.79-2.43,1.58s1,1.53,3.39,2.43c3.35,1.19,4.71,2.74,4.71,5.28s-1.78,4.65-5,5.22V23Z"/><path class="cls-31" d="M180.56,80.67a.37.37,0,0,1-.27-.13,5,5,0,0,1-.39-.52.36.36,0,1,1,.61-.39,5,5,0,0,0,.32.44.36.36,0,0,1,0,.51A.36.36,0,0,1,180.56,80.67Z"/><path class="cls-31" d="M179.59,76.79h-.05a.37.37,0,0,1-.31-.41,8.76,8.76,0,0,1,.26-1.19.37.37,0,0,1,.45-.25.36.36,0,0,1,.24.45,6.44,6.44,0,0,0-.23,1.09A.37.37,0,0,1,179.59,76.79Zm1.82-4.27a.31.31,0,0,1-.2-.07.36.36,0,0,1-.09-.5c.23-.32.47-.64.72-1a.36.36,0,0,1,.5-.06.36.36,0,0,1,.06.51c-.24.3-.47.61-.69.92A.36.36,0,0,1,181.41,72.52Zm2.88-3.71a.42.42,0,0,1-.21-.06.36.36,0,0,1-.08-.5c.24-.34.45-.65.63-1a.37.37,0,0,1,.5-.12.36.36,0,0,1,.12.49c-.2.32-.41.65-.66,1A.37.37,0,0,1,184.29,68.81Zm-7.46-19.25a.35.35,0,0,1-.19-.06l-1-.61a.36.36,0,0,1,.38-.62l1,.63a.36.36,0,0,1-.2.66Zm-4-2.42a.31.31,0,0,1-.18,0l-1-.6a.36.36,0,1,1,.37-.61l1,.59a.36.36,0,0,1-.18.67Zm-4-2.48a.31.31,0,0,1-.2-.07c-.33-.22-.65-.45-1-.68a.37.37,0,0,1-.07-.51.36.36,0,0,1,.5-.07L169,44a.36.36,0,0,1,.1.5A.37.37,0,0,1,168.83,44.66Zm-3.64-2.95a.37.37,0,0,1-.26-.1c-.28-.28-.56-.56-.82-.86a.35.35,0,1,1,.52-.48c.27.28.53.56.81.83a.35.35,0,0,1,0,.5A.32.32,0,0,1,165.19,41.71Zm-3-3.62a.35.35,0,0,1-.3-.17c-.22-.33-.42-.68-.62-1a.37.37,0,0,1,.14-.49.35.35,0,0,1,.49.14c.19.33.39.66.59,1a.37.37,0,0,1-.1.5A.36.36,0,0,1,162.22,38.09Zm.07-17.59a.35.35,0,0,1-.22-.08.35.35,0,0,1-.06-.5,11.72,11.72,0,0,1,.79-.91.36.36,0,0,1,.52.49c-.26.27-.51.56-.75.86A.35.35,0,0,1,162.29,20.5Zm22.87-3-.12,0c-.36-.12-.73-.25-1.1-.36a.38.38,0,0,1-.24-.46.37.37,0,0,1,.46-.23l1.11.37a.37.37,0,0,1,.23.46A.35.35,0,0,1,185.16,17.51Zm-19.33,0a.38.38,0,0,1-.31-.18.35.35,0,0,1,.13-.49,12,12,0,0,1,1.07-.56.36.36,0,0,1,.31.65c-.35.16-.69.34-1,.53A.37.37,0,0,1,165.83,17.47Zm14.83-1.29h-.08l-1.14-.25a.36.36,0,1,1,.15-.71l1.16.26a.36.36,0,0,1-.09.71Zm-10.46-.37a.37.37,0,0,1-.35-.28.36.36,0,0,1,.27-.43c.39-.09.79-.16,1.18-.22a.35.35,0,0,1,.41.3.36.36,0,0,1-.3.41c-.38.06-.76.13-1.13.21Zm5.84-.39h-.15c-.35,0-.69,0-1,0a.37.37,0,0,1-.36-.37.35.35,0,0,1,.37-.35c.36,0,.71,0,1.07,0h.12a.36.36,0,0,1,0,.71Z"/><path class="cls-1" d="M52.9,213.27c-11.19-.12-16.6-1.11-27.76-.88-.63-.45-3.89.05-5,.14-7.34.59-12,2-19.34,2.71-1,.09-1,1.08,0,1.18,5.49.51,11.06.43,16.59.61.07.78,1,1.49,2.82,1.47,13-.14,26-.53,39-1.13C62,217.24,55.78,213.3,52.9,213.27Z"/><path class="cls-11" d="M51.64,215.35H11.71V179.41H51.64Zm-32.83-7.1H44.54V186.51H18.81Z"/><path class="cls-29" d="M37.68,118.51q-.63,2.61-1.14,5.27l-.7.37Q36.67,121.3,37.68,118.51Z"/><path class="cls-31" d="M35.84,124.15l.7-.37c-.2,1-.37,2.06-.55,3.09l-1,.42C35.26,126.24,35.54,125.19,35.84,124.15Z"/><path class="cls-29" d="M33.19,136l1.59-.65q-.35,3-.6,5.94l-1.77.71C32.62,140,32.86,138,33.19,136Z"/><path class="cls-31" d="M32.41,142l1.77-.71c0,.38-.07.75-.1,1.13-.06.79-.1,1.59-.14,2.39l-1.83.85Q32.23,143.84,32.41,142Z"/><path class="cls-29" d="M32.11,145.67l1.83-.85a80.15,80.15,0,0,0,.07,8.49l-2.12,1.33C31.84,151.65,31.91,148.65,32.11,145.67Z"/><path class="cls-31" d="M31.89,154.64,34,153.31c0,.28,0,.56.05.84,0,.61.11,1.24.19,1.87L32,157C31.93,156.22,31.9,155.43,31.89,154.64Z"/><path class="cls-29" d="M32,157l2.29-1c.17,1.53.37,3.09.44,4.64L32.28,162C32.13,160.36,32,158.69,32,157Z"/><path class="cls-29" d="M34.69,162.59a12.21,12.21,0,0,1-.56,3.39.9.9,0,0,1-1.37.49c-.11-.84-.21-1.69-.3-2.54Z"/><path class="cls-31" d="M32.28,162l2.41-1.36a17.75,17.75,0,0,1,0,1.93l-2.23,1.34C32.39,163.3,32.33,162.66,32.28,162Z"/><path class="cls-31" d="M33.78,132.65l1.43-.65c-.15,1.12-.29,2.24-.43,3.36l-1.59.65C33.37,134.88,33.56,133.76,33.78,132.65Z"/><path class="cls-29" d="M35,127.29l1-.42c-.29,1.7-.54,3.41-.78,5.13l-1.43.65C34.14,130.85,34.53,129.07,35,127.29Z"/><path class="cls-31" d="M34.88,122.27q1.26-2.43,2.78-4.84a.14.14,0,0,1,.25.1c-.08.33-.16.66-.23,1-.61,1.68-1.16,3.38-1.67,5.09Z"/><path class="cls-32" d="M34.88,122.27,36,123.6c-.34,1.14-.65,2.28-.95,3.43l-1.69-1.6C33.84,124.37,34.34,123.32,34.88,122.27Z"/><path class="cls-31" d="M31.33,130.79a52.68,52.68,0,0,1,2-5.36l1.69,1.6c-.49,1.9-.91,3.81-1.29,5.73Z"/><path class="cls-32" d="M31.33,130.79l2.44,2q-.27,1.43-.51,2.85l-2.64-2.37C30.84,132.41,31.07,131.6,31.33,130.79Z"/><path class="cls-31" d="M29.34,139.84a49.7,49.7,0,0,1,1.28-6.6l2.64,2.37c-.38,2.27-.67,4.56-.89,6.85Z"/><path class="cls-32" d="M29.11,141.86c.06-.68.14-1.35.23-2l3,2.62c-.13,1.26-.22,2.53-.3,3.79L29,143.47C29,142.94,29.07,142.4,29.11,141.86Z"/><path class="cls-31" d="M28.89,151.78a79.45,79.45,0,0,1,.12-8.31l3.06,2.78q-.24,4-.19,7.95Z"/><path class="cls-32" d="M28.89,151.78l3,2.42c0,1,0,1.93.08,2.9l-2.86-1.79C29,154.14,28.93,153,28.89,151.78Z"/><path class="cls-31" d="M29.1,155.34v0L32,157.1c.06,1.57.16,3.15.29,4.71l-2.22-.4A34.3,34.3,0,0,1,29.1,155.34Z"/><path class="cls-32" d="M30,161.41l2.22.4c.06.66.12,1.31.19,2l-1.57-.07A13.7,13.7,0,0,1,30,161.41Z"/><path class="cls-31" d="M32.44,163.78c.1.9.2,1.8.32,2.69a.25.25,0,0,1-.1-.08,9.9,9.9,0,0,1-1.79-2.68Z"/><path class="cls-29" d="M47.51,128.1c-.75,1.33-1.46,2.69-2.15,4.06l-.66.15C45.59,130.88,46.53,129.47,47.51,128.1Z"/><path class="cls-31" d="M44.7,132.31l.66-.15c-.4.8-.78,1.61-1.16,2.42l-.93.12C43.74,133.89,44.21,133.1,44.7,132.31Z"/><path class="cls-29" d="M39.79,141.44l1.46-.16q-1,2.37-1.86,4.74l-1.62.17C38.4,144.59,39.07,143,39.79,141.44Z"/><path class="cls-31" d="M37.77,146.19l1.62-.17-.34.9c-.23.64-.45,1.28-.67,1.93l-1.7.27C37,148.14,37.39,147.16,37.77,146.19Z"/><path class="cls-29" d="M36.68,149.12l1.7-.27a65,65,0,0,0-1.89,7l-2.05.61C35.08,154,35.83,151.53,36.68,149.12Z"/><path class="cls-31" d="M34.44,156.45l2.05-.61c-.05.24-.11.47-.16.71-.1.51-.19,1-.28,1.58l-2.1.28C34.11,157.76,34.26,157.1,34.44,156.45Z"/><path class="cls-29" d="M34,158.41l2.1-.28c-.21,1.29-.4,2.62-.7,3.91l-2.3.56C33.32,161.2,33.62,159.8,34,158.41Z"/><path class="cls-29" d="M34.91,163.62a11.13,11.13,0,0,1-1.24,2.66.78.78,0,0,1-1.25.09c.11-.72.22-1.44.34-2.16Z"/><path class="cls-31" d="M33.05,162.6l2.3-.56c-.12.54-.27,1.06-.44,1.58l-2.15.59C32.86,163.67,33,163.14,33.05,162.6Z"/><path class="cls-31" d="M41.05,138.82l1.33-.21c-.39.89-.76,1.78-1.13,2.67l-1.46.16C40.2,140.56,40.62,139.68,41.05,138.82Z"/><path class="cls-29" d="M43.27,134.7l.93-.12c-.63,1.33-1.23,2.68-1.82,4l-1.33.21Q42.11,136.72,43.27,134.7Z"/><path class="cls-31" d="M44.34,130.55c1.07-1.14,2.2-2.25,3.41-3.34a.11.11,0,0,1,.17.14l-.41.75c-.89,1.24-1.73,2.51-2.55,3.8Z"/><path class="cls-32" d="M44.34,130.55,45,131.9c-.54.85-1.05,1.72-1.56,2.6l-1-1.71C43,132,43.66,131.28,44.34,130.55Z"/><path class="cls-31" d="M39.47,136.73a43.93,43.93,0,0,1,2.91-3.94l1,1.71q-1.26,2.16-2.38,4.4Z"/><path class="cls-32" d="M39.47,136.73,41,138.9c-.37.74-.73,1.48-1.08,2.23l-1.62-2.56C38.69,138,39.07,137.33,39.47,136.73Z"/><path class="cls-31" d="M35.74,143.7a43.9,43.9,0,0,1,2.58-5.13l1.62,2.56q-1.24,2.67-2.31,5.42Z"/><path class="cls-32" d="M35.1,145.31c.2-.55.42-1.08.64-1.61l1.89,2.85c-.39,1-.76,2-1.11,3l-1.88-3C34.79,146.18,34.93,145.74,35.1,145.31Z"/><path class="cls-31" d="M32.63,153.41a67.09,67.09,0,0,1,2-6.8l1.88,3q-1.12,3.21-2,6.48Z"/><path class="cls-32" d="M32.63,153.41l1.9,2.67q-.31,1.2-.6,2.4L32,156.36C32.17,155.37,32.39,154.38,32.63,153.41Z"/><path class="cls-31" d="M32,156.38v0l1.94,2.12c-.32,1.31-.6,2.63-.85,3.94l-1.73-.84A28,28,0,0,1,32,156.38Z"/><path class="cls-32" d="M31.35,161.58l1.73.84-.3,1.66-1.27-.42A11.09,11.09,0,0,1,31.35,161.58Z"/><path class="cls-31" d="M32.78,164.08c-.13.76-.25,1.52-.36,2.29l-.06-.09a8.47,8.47,0,0,1-.85-2.62Z"/><path class="cls-29" d="M60.46,137.45q-1.83,1.37-3.61,2.83l-.67-.14Q58.28,138.73,60.46,137.45Z"/><path class="cls-31" d="M56.18,140.14l.67.14c-.69.56-1.37,1.15-2.05,1.73l-.89-.28C54.66,141.19,55.41,140.66,56.18,140.14Z"/><path class="cls-29" d="M48,146.46l1.4.45c-1.25,1.17-2.46,2.37-3.64,3.57L44.18,150C45.41,148.77,46.67,147.59,48,146.46Z"/><path class="cls-31" d="M44.18,150l1.55.51-.68.68c-.48.48-.94,1-1.4,1.49L42,152.2C42.7,151.45,43.43,150.7,44.18,150Z"/><path class="cls-29" d="M42,152.2l1.67.45a64.73,64.73,0,0,0-4.59,5.6L36.94,158C38.54,156,40.22,154.05,42,152.2Z"/><path class="cls-31" d="M36.94,158l2.12.29c-.14.2-.29.39-.43.58-.31.43-.6.87-.9,1.33l-2-.6C36.1,159,36.51,158.49,36.94,158Z"/><path class="cls-29" d="M35.69,159.56l2,.6c-.73,1.09-1.45,2.23-2.25,3.28L33.16,163C34,161.84,34.82,160.69,35.69,159.56Z"/><path class="cls-29" d="M34.43,164.7a10.43,10.43,0,0,1-2.22,1.92.77.77,0,0,1-1.17-.43q.59-.91,1.2-1.83Z"/><path class="cls-31" d="M33.16,163l2.32.43a15.93,15.93,0,0,1-1,1.26l-2.19-.34Z"/><path class="cls-31" d="M50.19,144.59l1.29.35c-.71.65-1.41,1.31-2.11,2l-1.4-.45C48.7,145.82,49.44,145.2,50.19,144.59Z"/><path class="cls-29" d="M53.91,141.73l.89.28c-1.12,1-2.22,1.94-3.32,2.93l-1.29-.35C51.41,143.6,52.64,142.65,53.91,141.73Z"/><path class="cls-31" d="M56.58,138.39c1.44-.61,2.92-1.16,4.47-1.65a.11.11,0,0,1,.1.19l-.69.52q-2,1.16-3.87,2.42Z"/><path class="cls-32" d="M56.58,138.39v1.48c-.84.56-1.67,1.14-2.49,1.73l-.23-2C54.75,139.19,55.65,138.77,56.58,138.39Z"/><path class="cls-31" d="M49.6,142a43.34,43.34,0,0,1,4.27-2.4l.23,2c-1.36,1-2.68,2-4,3.05Z"/><path class="cls-32" d="M49.6,142l.52,2.62q-1,.78-1.89,1.59l-.43-3C48.39,142.82,49,142.42,49.6,142Z"/><path class="cls-31" d="M43.35,146.87a43.07,43.07,0,0,1,4.45-3.63l.43,3c-1.49,1.28-2.93,2.62-4.32,4Z"/><path class="cls-32" d="M42.1,148.07c.41-.41.83-.81,1.25-1.2l.56,3.37c-.78.76-1.53,1.54-2.27,2.33l-.49-3.5Z"/><path class="cls-31" d="M36.53,154.45a69.66,69.66,0,0,1,4.62-5.38l.49,3.5c-1.55,1.64-3,3.35-4.47,5.1Z"/><path class="cls-32" d="M36.53,154.45l.64,3.22c-.52.64-1,1.29-1.53,1.94l-.9-2.73C35.32,156.05,35.92,155.25,36.53,154.45Z"/><path class="cls-31" d="M34.73,156.9v0l.9,2.73c-.82,1.07-1.61,2.15-2.38,3.25L32,161.38A28.09,28.09,0,0,1,34.73,156.9Z"/><path class="cls-32" d="M32,161.38l1.24,1.48-.95,1.39-1-.9A12.88,12.88,0,0,1,32,161.38Z"/><path class="cls-31" d="M32.31,164.25c-.43.65-.86,1.29-1.27,1.94a.36.36,0,0,1,0-.11,8.64,8.64,0,0,1,.29-2.73Z"/><path class="cls-29" d="M54.36,154.49c-1,.4-2.06.83-3.08,1.28l-.43-.23Q52.59,155,54.36,154.49Z"/><path class="cls-31" d="M50.85,155.54l.43.23c-.59.26-1.17.54-1.76.81l-.57-.36C49.58,156,50.21,155.76,50.85,155.54Z"/><path class="cls-29" d="M43.89,158.37l.89.58c-1.09.58-2.17,1.18-3.23,1.79l-1-.65C41.66,159.49,42.76,158.91,43.89,158.37Z"/><path class="cls-31" d="M40.57,160.09l1,.65-.6.35c-.43.24-.85.5-1.27.77l-1.07-.64C39.25,160.83,39.91,160.45,40.57,160.09Z"/><path class="cls-29" d="M38.61,161.22l1.07.64a48.73,48.73,0,0,0-4.29,3L34,164.27Q36.22,162.65,38.61,161.22Z"/><path class="cls-31" d="M34,164.27l1.42.61-.41.32-.88.75-1.31-.81Z"/><path class="cls-29" d="M32.79,165.14l1.31.81c-.72.63-1.44,1.28-2.2,1.87l-1.54-.75C31.15,166.41,32,165.77,32.79,165.14Z"/><path class="cls-29" d="M30.92,168.49a7.68,7.68,0,0,1-1.92.91.56.56,0,0,1-.74-.52c.39-.36.79-.71,1.19-1Z"/><path class="cls-31" d="M30.36,167.07l1.54.75c-.32.24-.65.46-1,.67l-1.47-.66Z"/><path class="cls-31" d="M45.81,157.49l.83.5-1.86,1-.89-.58C44.52,158.07,45.16,157.77,45.81,157.49Z"/><path class="cls-29" d="M49,156.22l.57.36q-1.46.67-2.88,1.41l-.83-.5C46.84,157,47.89,156.61,49,156.22Z"/><path class="cls-31" d="M51.46,154.4c1.12-.15,2.27-.24,3.44-.29a.08.08,0,0,1,0,.15l-.58.23c-1.07.29-2.13.6-3.18.95Z"/><path class="cls-32" d="M51.46,154.4l-.28,1q-1,.34-2.07.72l.22-1.42C50,154.61,50.74,154.49,51.46,154.4Z"/><path class="cls-31" d="M45.88,155.59a34,34,0,0,1,3.45-.85l-.22,1.42c-1.13.42-2.25.88-3.36,1.36Z"/><path class="cls-32" d="M45.88,155.59l-.13,1.93c-.55.24-1.09.49-1.63.75l.28-2.18C44.89,155.91,45.39,155.75,45.88,155.59Z"/><path class="cls-31" d="M40.59,157.76a32.64,32.64,0,0,1,3.81-1.67l-.28,2.18c-1.29.61-2.55,1.26-3.8,2Z"/><path class="cls-32" d="M39.48,158.36q.56-.31,1.11-.6l-.27,2.47c-.68.38-1.36.77-2,1.18l.34-2.53Z"/><path class="cls-31" d="M34.37,161.74a46.57,46.57,0,0,1,4.26-2.86l-.34,2.53q-2.1,1.28-4.1,2.7Z"/><path class="cls-32" d="M34.37,161.74l-.18,2.37c-.49.35-1,.7-1.44,1.06l-.1-2.08C33.21,162.62,33.78,162.18,34.37,161.74Z"/><path class="cls-31" d="M32.63,163.1h0l.1,2.08c-.78.59-1.55,1.19-2.3,1.81l-.57-1.27A21.16,21.16,0,0,1,32.63,163.1Z"/><path class="cls-32" d="M29.88,165.71l.57,1.27-.93.79-.52-.83A8.65,8.65,0,0,1,29.88,165.71Z"/><path class="cls-31" d="M29.52,167.77q-.63.54-1.26,1.11s0-.06,0-.08a6.38,6.38,0,0,1,.73-1.86Z"/><path class="cls-29" d="M22.12,132.76c.41,1.28.8,2.59,1.16,3.9l.5.23C23.27,135.49,22.72,134.12,22.12,132.76Z"/><path class="cls-31" d="M23.78,136.89l-.5-.23c.21.76.4,1.53.59,2.3l.72.25C24.33,138.43,24.07,137.66,23.78,136.89Z"/><path class="cls-29" d="M26.45,145.67l-1.14-.36c.3,1.49.58,3,.83,4.46l1.27.39C27.12,148.66,26.81,147.16,26.45,145.67Z"/><path class="cls-31" d="M27.41,150.16l-1.27-.39.15.84c.1.6.18,1.2.27,1.8l1.31.5C27.73,152,27.58,151.08,27.41,150.16Z"/><path class="cls-29" d="M27.87,152.91l-1.31-.5q.44,3.21.55,6.45l1.55.84C28.49,157.43,28.23,155.16,27.87,152.91Z"/><path class="cls-31" d="M28.66,159.7l-1.55-.84,0,.64c0,.47,0,.95,0,1.43l1.63.57Q28.74,160.6,28.66,159.7Z"/><path class="cls-29" d="M28.78,161.5l-1.63-.57c0,1.17,0,2.37,0,3.56l1.76.84C28.9,164.05,28.86,162.78,28.78,161.5Z"/><path class="cls-29" d="M27.31,165.94a9.78,9.78,0,0,0,.63,2.53.59.59,0,0,0,1,.27q0-1,0-2Z"/><path class="cls-31" d="M28.93,165.33l-1.76-.84c0,.49.07,1,.14,1.45l1.63.85C28.94,166.3,28.93,165.81,28.93,165.33Z"/><path class="cls-31" d="M25.8,143.17l-1-.38q.29,1.26.54,2.52l1.14.36C26.24,144.83,26,144,25.8,143.17Z"/><path class="cls-29" d="M24.59,139.21l-.72-.25c.32,1.27.62,2.55.9,3.83l1,.38C25.43,141.84,25,140.51,24.59,139.21Z"/><path class="cls-31" d="M24.31,135.39c-.7-1.16-1.44-2.31-2.25-3.45a.09.09,0,0,0-.16.09c.08.24.15.49.22.73.54,1.23,1,2.47,1.51,3.73Z"/><path class="cls-32" d="M24.31,135.39l-.68,1.1c.31.83.61,1.68.89,2.52l1.05-1.34Q25,136.52,24.31,135.39Z"/><path class="cls-31" d="M27.35,141.57a42.81,42.81,0,0,0-1.78-3.9L24.52,139c.47,1.4.9,2.82,1.3,4.24Z"/><path class="cls-32" d="M27.35,141.57l-1.53,1.68c.19.71.37,1.42.55,2.13l1.64-2Q27.7,142.45,27.35,141.57Z"/><path class="cls-31" d="M29.36,148.27a41.42,41.42,0,0,0-1.35-4.9l-1.64,2c.42,1.69.78,3.4,1.1,5.12Z"/><path class="cls-32" d="M29.66,149.79c-.09-.51-.19-1-.3-1.52l-1.89,2.23c.17.95.33,1.9.47,2.85l1.9-2.35C29.78,150.6,29.73,150.19,29.66,149.79Z"/><path class="cls-31" d="M30.52,157.29c-.13-2.11-.35-4.21-.68-6.29l-1.9,2.35q.45,3,.7,6Z"/><path class="cls-32" d="M30.52,157.29l-1.88,2.07c.06.74.11,1.47.15,2.21L30.63,160C30.61,159.09,30.57,158.19,30.52,157.29Z"/><path class="cls-31" d="M30.63,160v0l-1.84,1.58c.07,1.2.12,2.4.14,3.59l1.49-.48A29.32,29.32,0,0,0,30.63,160Z"/><path class="cls-32" d="M30.42,164.68l-1.49.48c0,.51,0,1,0,1.51L30,166.5A12.31,12.31,0,0,0,30.42,164.68Z"/><path class="cls-31" d="M28.94,166.67q0,1,0,2.07l.07-.07a8,8,0,0,0,1-2.17Z"/><path class="cls-29" d="M10.54,139c.84,1,1.67,2,2.49,3l.55,0C12.59,141,11.58,140,10.54,139Z"/><path class="cls-31" d="M13.58,142.06l-.55,0c.47.6.93,1.21,1.4,1.83l.74-.11Q14.39,142.92,13.58,142.06Z"/><path class="cls-29" d="M19.25,148.86l-1.17.18q1.25,1.85,2.41,3.69l1.3-.21C21,151.28,20.14,150.05,19.25,148.86Z"/><path class="cls-31" d="M21.79,152.52l-1.3.21.45.71c.31.5.61,1,.91,1.52l1.38-.14C22.76,154.05,22.29,153.28,21.79,152.52Z"/><path class="cls-29" d="M23.23,154.82l-1.38.14c1,1.82,2,3.7,2.89,5.63l1.72.06C25.46,158.66,24.39,156.71,23.23,154.82Z"/><path class="cls-31" d="M26.46,160.65l-1.72-.06c.09.19.18.38.26.57.19.43.36.86.54,1.31l1.7-.22C27,161.72,26.73,161.18,26.46,160.65Z"/><path class="cls-29" d="M27.24,162.25l-1.7.22c.42,1.07.84,2.18,1.33,3.23l1.91,0C28.29,164.52,27.78,163.38,27.24,162.25Z"/><path class="cls-29" d="M27.54,167a9.18,9.18,0,0,0,1.51,2,.59.59,0,0,0,1-.2c-.23-.6-.47-1.2-.71-1.79Z"/><path class="cls-31" d="M28.78,165.67l-1.91,0c.21.44.43.86.67,1.27l1.79,0C29.15,166.56,29,166.11,28.78,165.67Z"/><path class="cls-31" d="M17.74,146.87l-1.08.12c.48.68.95,1.37,1.42,2l1.17-.18C18.76,148.19,18.26,147.52,17.74,146.87Z"/><path class="cls-29" d="M15.17,143.8l-.74.11c.76,1,1.5,2,2.23,3.08l1.08-.12C16.91,145.82,16.05,144.8,15.17,143.8Z"/><path class="cls-31" d="M13.5,140.45q-1.59-1.12-3.33-2.13a.1.1,0,0,0-.11.16l.48.56c.94.87,1.85,1.78,2.75,2.72Z"/><path class="cls-32" d="M13.5,140.45l-.21,1.31c.59.62,1.17,1.25,1.75,1.9l.45-1.71C14.84,141.44,14.19,140.93,13.5,140.45Z"/><path class="cls-31" d="M18.56,144.71A40,40,0,0,0,15.49,142L15,143.66c.94,1.06,1.86,2.16,2.74,3.28Z"/><path class="cls-32" d="M18.56,144.71l-.78,2.23c.44.56.87,1.12,1.3,1.69l.75-2.58C19.41,145.59,19,145.15,18.56,144.71Z"/><path class="cls-31" d="M22.88,149.92a38.54,38.54,0,0,0-3.05-3.87l-.75,2.58c1,1.35,2,2.75,2.89,4.17Z"/><path class="cls-32" d="M23.71,151.17c-.28-.43-.55-.85-.83-1.25L22,152.8c.51.79,1,1.59,1.49,2.39l.86-3C24.12,151.85,23.92,151.5,23.71,151.17Z"/><path class="cls-31" d="M27.26,157.62a59,59,0,0,0-2.94-5.43l-.86,3q1.51,2.53,2.86,5.17Z"/><path class="cls-32" d="M27.26,157.62l-.94,2.74c.33.64.64,1.29.95,1.94L28.36,160C28,159.22,27.65,158.41,27.26,157.62Z"/><path class="cls-31" d="M28.37,160.05v0l-1.09,2.27c.51,1.07,1,2.14,1.46,3.22l1.18-1.11A28.47,28.47,0,0,0,28.37,160.05Z"/><path class="cls-32" d="M29.91,164.41l-1.18,1.11.56,1.37.92-.64A11.57,11.57,0,0,0,29.91,164.41Z"/><path class="cls-31" d="M29.29,166.89c.26.63.51,1.26.75,1.9l0-.09a8.81,8.81,0,0,0,.14-2.45Z"/><path class="cls-29" d="M13.07,155c.77.51,1.52,1,2.28,1.59l.37-.13C14.85,155.91,14,155.42,13.07,155Z"/><path class="cls-31" d="M15.72,156.43l-.37.13,1.29,1,.5-.23C16.67,157,16.2,156.71,15.72,156.43Z"/><path class="cls-29" d="M20.88,160l-.79.38c.79.68,1.56,1.37,2.32,2.06l.88-.42C22.5,161.28,21.7,160.61,20.88,160Z"/><path class="cls-31" d="M23.29,162l-.88.42.44.4.9.87.94-.4C24.23,162.83,23.76,162.4,23.29,162Z"/><path class="cls-29" d="M24.69,163.27l-.94.4a41.07,41.07,0,0,1,3,3.31l1.22-.32Q26.4,164.89,24.69,163.27Z"/><path class="cls-31" d="M28,166.66l-1.22.32.28.34c.21.26.41.53.61.8l1.15-.52C28.52,167.29,28.25,167,28,166.66Z"/><path class="cls-29" d="M28.79,167.6l-1.15.52c.48.66,1,1.34,1.49,2l1.33-.43C29.92,169,29.36,168.28,28.79,167.6Z"/><path class="cls-29" d="M29.82,170.83a6.3,6.3,0,0,0,1.4,1.09.44.44,0,0,0,.66-.35c-.26-.37-.53-.73-.8-1.1Z"/><path class="cls-31" d="M30.46,169.66l-1.33.43a9.73,9.73,0,0,0,.69.74l1.26-.36Z"/><path class="cls-31" d="M19.47,158.9l-.73.31,1.35,1.13.79-.38Z"/><path class="cls-29" d="M17.14,157.31l-.5.23c.71.54,1.41,1.1,2.1,1.67l.73-.31C18.71,158.35,17.93,157.81,17.14,157.31Z"/><path class="cls-31" d="M15.39,155.32c-.87-.29-1.77-.55-2.7-.77-.07,0-.11.09,0,.13l.43.29c.81.41,1.61.85,2.4,1.31Z"/><path class="cls-32" d="M15.39,155.32l.08,1,1.55.95L17,156Q16.23,155.61,15.39,155.32Z"/><path class="cls-31" d="M19.67,157.22A24.44,24.44,0,0,0,17,156l0,1.28q1.28.81,2.49,1.71Z"/><path class="cls-32" d="M19.67,157.22l-.16,1.72c.41.29.8.59,1.2.9l.07-2C20.42,157.65,20,157.43,19.67,157.22Z"/><path class="cls-31" d="M23.59,159.93a24.2,24.2,0,0,0-2.81-2.05l-.07,2c.94.73,1.86,1.5,2.75,2.3Z"/><path class="cls-32" d="M24.38,160.62c-.26-.24-.53-.47-.79-.69l-.13,2.21c.49.43,1,.89,1.46,1.35L25,161.2Z"/><path class="cls-31" d="M28,164.37a42.86,42.86,0,0,0-3-3.17l-.08,2.29c1,1,2,2,2.89,3Z"/><path class="cls-32" d="M28,164.37l-.19,2.11,1,1.15.36-1.81C28.8,165.32,28.4,164.84,28,164.37Z"/><path class="cls-31" d="M29.19,165.83h0l-.36,1.81c.54.64,1.06,1.28,1.58,1.94l.63-1A17.91,17.91,0,0,0,29.19,165.83Z"/><path class="cls-32" d="M31,168.54l-.63,1,.63.84.53-.65A7.76,7.76,0,0,0,31,168.54Z"/><path class="cls-31" d="M31,170.41c.29.38.57.77.85,1.16,0,0,0,0,0-.07a6.38,6.38,0,0,0-.33-1.74Z"/><path class="cls-10" d="M39.72,164.37a6.77,6.77,0,0,0-3.84-1.19h-8A6.83,6.83,0,0,0,21.1,170v2.12a7.29,7.29,0,0,0,6.58,7.24,5.48,5.48,0,0,0,.7,0h7.05a7.28,7.28,0,0,0,7.28-7.28V170A6.8,6.8,0,0,0,39.72,164.37Z"/><path class="cls-33" d="M21.1,172.13V170a6.83,6.83,0,0,1,6.83-6.83h8a6.77,6.77,0,0,1,3.84,1.19c-1.73,6.51-5.84,11.69-14.37,14.37A7.27,7.27,0,0,1,21.1,172.13Z"/></g></g></svg>